<?xml version="1.0" encoding="iso-8859-1"?>
<!-- Generator: Adobe Illustrator 19.0.0, SVG Export Plug-In . SVG Version: 6.00 Build 0)  -->
<svg xmlns="http://www.w3.org/2000/svg" xmlns:xlink="http://www.w3.org/1999/xlink" version="1.1" id="Layer_1" x="0px" y="0px" viewBox="0 0 512 512" style="enable-background:new 0 0 512 512;" xml:space="preserve">
<path style="fill:#7F7494;" d="M417.156,386.604H136.221c-7.277,0-14.413-2.527-19.775-7.446  c-7.253-6.655-10.499-16.37-8.856-25.879l11.626-65.684l15.942,2.822l-11.62,65.651c-0.762,4.41,0.949,8.974,4.658,11.833  c2.201,1.696,4.955,2.514,7.733,2.514h283.25v14.166C419.179,385.698,418.274,386.604,417.156,386.604z"/>
<g style="opacity:0.32;">
	<polygon style="fill:#2D2128;" points="135.283,289.658 119.342,286.835 114.551,313.899 129.851,320.35  "/>
</g>
<path style="fill:#78777E;" d="M117.073,345.939h116.441h41.398h127.314c9.364,0,16.955,7.591,16.955,16.955v15.615H135.652  c-12.644,0-22.238-11.394-20.085-23.853L117.073,345.939"/>
<path style="fill:#D7D6D9;" d="M94.343,186.325l-13.639-61.103c-0.282-1.265,0.68-2.465,1.975-2.465h96.167h39.019h281.539  c1.416,0,2.394,1.416,1.893,2.74l-64.58,170.681c-0.284,0.752-0.987,1.264-1.79,1.305L122.701,313.37l-9.205-41.24L94.343,186.325z"/>
<g>
	<path style="fill:#78777E;" d="M118.907,122.757l7.747-45.552c3.844-22.604-13.572-43.232-36.5-43.232H8.547   c-1.118,0-2.024,0.906-2.024,2.024v25.719c0,1.118,0.906,2.024,2.024,2.024h68.198c9.282,0,16.087,8.732,13.817,17.733   l-10.291,40.816c-0.077,0.307-0.082,0.627-0.013,0.936L118.907,122.757z"/>
	<circle style="fill:#78777E;" cx="142.105" cy="451.208" r="40.505"/>
	<circle style="fill:#78777E;" cx="403.984" cy="451.208" r="40.505"/>
	<path style="fill:#78777E;" d="M489.846,155.759H87.521l-6.816-30.538c-0.282-1.265,0.68-2.465,1.975-2.465h416.724   c1.416,0,2.394,1.416,1.893,2.74L489.846,155.759z"/>
</g>
<g>
	<circle style="fill:#3F3C43;" cx="142.105" cy="451.208" r="17.864"/>
	<circle style="fill:#3F3C43;" cx="403.984" cy="451.208" r="17.864"/>
</g>
<path style="fill:#6EAC34;" d="M246.947,31.122c13.464-6.437,28.265-10.835,44.223-10.835c52.739,0,95.492,42.753,95.492,95.492  s-42.753,95.492-95.492,95.492s-95.492-42.753-95.492-95.492c0-27.948,12.006-53.091,31.142-70.555  C226.82,45.225,240.743,34.089,246.947,31.122z"/>
<path style="opacity:0.32;fill:#2D2128;enable-background:new    ;" d="M499.378,122.757h-36.673l-54.745,144.691  c-0.284,0.752-0.988,1.264-1.79,1.305l-290.159,14.765l6.663,29.854l312.227-15.887c0.802-0.041,1.506-0.553,1.79-1.305  l64.58-170.681C501.772,124.173,500.794,122.757,499.378,122.757z"/>
<path d="M291.171,218.861c56.839,0,103.082-46.242,103.082-103.082S348.011,12.697,291.171,12.697  c-16.611,0-33.119,4.046-47.743,11.701c-3.714,1.944-5.147,6.53-3.205,10.243s6.531,5.149,10.243,3.205  c12.461-6.522,26.536-9.97,40.705-9.97c48.47,0,87.904,39.433,87.904,87.904s-39.433,87.904-87.904,87.904  s-87.904-39.433-87.904-87.904c0-24.649,10.449-48.322,28.669-64.949c3.096-2.825,3.315-7.625,0.49-10.722  c-2.825-3.096-7.625-3.315-10.722-0.49c-21.362,19.495-33.615,47.255-33.615,76.161  C188.089,172.619,234.331,218.861,291.171,218.861z"/>
<path d="M283.622,155.608c2.013,0,3.943-0.799,5.366-2.223l56.107-56.108c2.964-2.964,2.964-7.769,0-10.732  c-2.964-2.964-7.769-2.964-10.732,0l-50.741,50.741l-27.056-27.056c-2.964-2.964-7.769-2.964-10.732,0  c-2.964,2.964-2.964,7.769,0,10.732l32.422,32.422C279.678,154.808,281.609,155.608,283.622,155.608z"/>
<path d="M510.565,118.156c-1.512-2.189-4.001-3.494-6.66-3.494h-84.849c-4.47,0-8.095,3.624-8.095,8.095  c0,4.47,3.624,8.095,8.095,8.095h73.132l-6.362,16.812H405.23c-4.47,0-8.095,3.624-8.095,8.095s3.624,8.095,8.095,8.095h74.471  L432.123,289.6l-301.439,15.338l-7.716-34.572c-0.972-4.363-5.299-7.114-9.663-6.137c-4.364,0.973-7.111,5.3-6.137,9.663  l8.857,39.676l-6.86,39.708c-1.434,8.297,0.854,16.749,6.278,23.191c5.424,6.441,13.364,10.136,21.784,10.136h283.528  c4.47,0,8.095-3.624,8.095-8.095v-15.615c0-13.812-11.237-25.05-25.05-25.05H276.484c-4.47,0-8.095,3.624-8.095,8.095  c0,4.47,3.624,8.095,8.095,8.095h127.313c4.885,0,8.86,3.975,8.86,8.86v7.52H137.224c-3.634,0-7.06-1.594-9.4-4.373  s-3.327-6.426-2.709-10.006l0.345-2h109.625c4.47,0,8.095-3.624,8.095-8.095c0-4.47-3.624-8.095-8.095-8.095H128.258l2.889-16.719  l307.085-15.626c3.212-0.164,6.022-2.213,7.16-5.22l66.085-174.659C512.417,123.134,512.077,120.344,510.565,118.156z"/>
<path d="M73.698,123.746c0.025,0.203,0.059,0.405,0.099,0.605c0.011,0.057,0.015,0.112,0.027,0.169l7.336,32.865  c0.001,0.005,0.002,0.01,0.003,0.015l17.463,78.231c0.842,3.77,4.185,6.333,7.894,6.333c0.584,0,1.178-0.064,1.771-0.196  c4.363-0.974,7.111-5.301,6.137-9.664l-15.235-68.25h76.894c4.47,0,8.095-3.624,8.095-8.095s-3.624-8.095-8.095-8.095H95.579  l-3.753-16.812h69.716c4.47,0,8.095-3.624,8.095-8.095s-3.624-8.095-8.095-8.095h-31.477l6.139-36.099  c2.233-13.13-1.414-26.495-10.005-36.672S105.041,25.88,91.724,25.88H8.095C3.624,25.88,0,29.505,0,33.975v29.767  c0,4.47,3.624,8.095,8.095,8.095h70.222c1.911,0,3.68,0.864,4.855,2.372c1.175,1.508,1.581,3.434,1.113,5.288l-10.408,41.283  c-0.007,0.026-0.009,0.053-0.016,0.08c-0.026,0.108-0.044,0.218-0.065,0.327c-0.035,0.178-0.07,0.356-0.093,0.534  c-0.013,0.102-0.02,0.204-0.029,0.307c-0.017,0.19-0.031,0.379-0.035,0.569c-0.002,0.096,0,0.191,0.001,0.287  c0.003,0.198,0.012,0.395,0.029,0.591C73.677,123.564,73.687,123.655,73.698,123.746z M78.317,55.646H16.19V42.069h75.535  c8.539,0,16.595,3.742,22.105,10.266c5.509,6.524,7.847,15.094,6.415,23.513l-6.6,38.814h-21.53l7.868-31.209  c1.696-6.727,0.224-13.724-4.04-19.196C91.678,58.785,85.254,55.646,78.317,55.646z"/>
<path d="M143.679,403.118c-26.519,0-48.093,21.574-48.093,48.093s21.575,48.093,48.093,48.093s48.093-21.574,48.093-48.093  S170.198,403.118,143.679,403.118z M143.679,484.124c-18.15,0-32.915-14.765-32.915-32.915c0-18.15,14.766-32.915,32.915-32.915  s32.915,14.765,32.915,32.915C176.593,469.359,161.828,484.124,143.679,484.124z"/>
<path d="M405.553,403.118c-26.519,0-48.093,21.574-48.093,48.093s21.574,48.093,48.093,48.093c26.519,0,48.093-21.574,48.093-48.093  S432.07,403.118,405.553,403.118z M405.553,484.124c-18.15,0-32.915-14.765-32.915-32.915c0-18.15,14.765-32.915,32.915-32.915  c18.15,0,32.915,14.765,32.915,32.915C438.467,469.359,423.701,484.124,405.553,484.124z"/>
<path d="M143.679,425.757c-14.035,0-25.453,11.418-25.453,25.453c0,14.035,11.419,25.453,25.453,25.453  c14.034,0,25.453-11.419,25.453-25.453S157.714,425.757,143.679,425.757z M143.679,461.486c-5.666,0-10.275-4.61-10.275-10.275  c0-5.665,4.61-10.275,10.275-10.275s10.275,4.609,10.275,10.275S149.344,461.486,143.679,461.486z"/>
<path d="M405.553,425.757c-14.035,0-25.453,11.418-25.453,25.453c0,14.035,11.419,25.453,25.453,25.453  c14.034,0,25.453-11.419,25.453-25.453S419.587,425.757,405.553,425.757z M405.553,461.486c-5.666,0-10.275-4.61-10.275-10.275  c0-5.665,4.61-10.275,10.275-10.275c5.665,0,10.275,4.609,10.275,10.275S411.218,461.486,405.553,461.486z"/>
<g>
</g>
<g>
</g>
<g>
</g>
<g>
</g>
<g>
</g>
<g>
</g>
<g>
</g>
<g>
</g>
<g>
</g>
<g>
</g>
<g>
</g>
<g>
</g>
<g>
</g>
<g>
</g>
<g>
</g>
</svg>
