<svg xmlns="http://www.w3.org/2000/svg" viewBox="0 0 25 25"><defs><style>.cls-1{fill:#231f20;}</style></defs><g id="tie"><path class="cls-1" d="M15.86,12.21c-.17-2.54-.45-5.1-.84-7.62A3.51,3.51,0,0,0,15.4,3a3,3,0,0,0-.06-.62A1.66,1.66,0,0,0,13.71,1H11.28a1.63,1.63,0,0,0-1.6,1.24A3.06,3.06,0,0,0,9.6,3,3.42,3.42,0,0,0,10,4.59c-.36,2.49-.63,5-.79,7.56C9,14.93,9,17.74,9,20.51a.45.45,0,0,0,.15.34l3,3a.48.48,0,0,0,.7,0l3-3a.48.48,0,0,0,.15-.33C16.09,17.75,16,15,15.86,12.21Zm-5.2-9.75A.62.62,0,0,1,11.28,2h2.43a.66.66,0,0,1,.65.54,2,2,0,0,1,0,.44,2.31,2.31,0,0,1-.21,1H10.81a2.4,2.4,0,0,1-.21-1A2.62,2.62,0,0,1,10.66,2.46ZM15,20.29l-2.51,2.5L10,20.29c-.05-2.68,0-5.39.2-8.07.15-2.41.4-4.83.73-7.22h3.14c.37,2.41.63,4.85.79,7.28C15,14.93,15.08,17.62,15,20.29Z"/><path class="cls-1" d="M13.78,16.58,10.7,19.5a.5.5,0,0,0,0,.71.5.5,0,0,0,.71,0l3.08-2.92a.5.5,0,0,0-.69-.73Z"/><path class="cls-1" d="M11.14,17.47l3.24-3a.5.5,0,0,0-.67-.73l-3.25,3a.5.5,0,0,0,0,.71.52.52,0,0,0,.36.16A.48.48,0,0,0,11.14,17.47Z"/></g></svg>